# xmcd CD database file
#
# Track frame offsets:
#	150
#	29404
#	56983
#	84773
#	113205
#	137949
#	166734
#	194363
#	223783
#	238647
#
# Disc length: 3632 seconds
#
# Revision: 0
# Processed by: cddbd v1.5.2PL0 Copyright (c) Steve Scherf et al.
# Submitted via: CDex 1.51
#
DISCID=8b0e2e0a
DTITLE=The Harry Allen Joe Cohn Quartet - Hey, Look Me Over
DYEAR=2004
DGENRE=Jazz
TTITLE0=With the Wind and the Rain in Your Hair
TTITLE1=Take Four
TTITLE2=It's Been a Long, Long Time
TTITLE3=Hey, Look Me Over
TTITLE4=Seven Come Eleven
TTITLE5=I'll only Miss Her When I Think of Her
TTITLE6=Travisimo
TTITLE7=Get Out
TTITLE8=Pick Yourself Up
TTITLE9=Danielle
EXTD=YEAR: 2004
EXTT0=
EXTT1=
EXTT2=
EXTT3=
EXTT4=
EXTT5=
EXTT6=
EXTT7=
EXTT8=
EXTT9=
PLAYORDER=
